{"title":"Gullivers Travels 2010 XviD R5 LiNE DragonTrG","uid":6151926,"size":1215265914,"categoryP":"video","categoryS":"movies","magnet":"?xt=urn:btih:cc19a7271aa15bdda9453cf3259c7e5e9a3e639d&amp;dn=Gullivers+Travels+2010+XviD+R5+LiNE+DragonTrG&amp;tr=udp%3A%2F%2Ftracker.openbittorrent.com%3A80&amp;tr=udp%3A%2F%2Fopen.demonii.com%3A1337&amp;tr=udp%3A%2F%2Ftracker.coppersurfer.tk%3A6969&amp;tr=udp%3A%2F%2Fexodus.desync.com%3A6969","seeders":0,"leechers":0,"uploader":"SAFCukO09","files":3,"time":1296906913,"description":"Format : AVI\nFormat/Info : Audio Video Interleave\nFile size : 1.13 GiB\nDuration : 1h 21mn\nOverall bit rate : 1 995 Kbps\nWriting application : VirtualDubMod 1.5.10.3 | www.virtualdub-fr.org || (build 2550/release)\nWriting library : VirtualDubMod build 2550/release\n\nVideo\nID : 0\nFormat : MPEG-4 Visual\nFormat profile : Advanced Simple@L5\nFormat settings, BVOP : Yes\nFormat settings, QPel : No\nFormat settings, GMC : No warppoints\nFormat settings, Matrix : Custom\nCodec ID : XVID\nCodec ID/Hint : XviD\nDuration : 1h 21mn\nBit rate : 1 538 Kbps\nWidth : 720 pixels\nHeight : 304 pixels\nDisplay aspect ratio : 2.35:1\nFrame rate : 25.000 fps\nColor space : YUV\nChroma subsampling : 4:2:0\nBit depth : 8 bits\nScan type : Progressive\nBits/(Pixel*Frame) : 0.281\nStream size : 893 MiB (77%)\nWriting library : XviD 1.2.1 (UTC 2008-12-04)\n\nAudio\nID : 1\nFormat : AC-3\nFormat/Info : Audio Coding 3\nMode extension : CM (complete main)\nCodec ID : 2000\nDuration : 1h 21mn\nBit rate mode : Constant\nBit rate : 448 Kbps\nChannel(s) : 6 channels\nChannel positions : Front: L C R, Side: L R, LFE\nSampling rate : 48.0 KHz\nBit depth : 16 bits\nStream size : 260 MiB (22%)\nAlignment : Split accross interleaves\nInterleave, duration : 40 ms (1.00 video frame)\nInterleave, preload duration : 500 ms\n &lt;a href=&quot;\nhttp://www.imdb.com/title/tt1320261/&quot; rel=&quot;nofollow&quot; target=&quot;_NEW&quot;&gt;\nhttp://www.imdb.com/title/tt1320261/&lt;/a&gt;\n\nUsers: 4.7/10 (2,840 votes) 50 reviews | Critics: 100 reviews Metascore: 33/100 (based on 32 reviews from Metacritic.com)\n\nTravel writer Lemuel Gulliver takes an assignment in Bermuda, but ends up on the island of Liliput, where he towers over its tiny citizens.\nDirector:\nRob Letterman\nWriters:\nJoe Stillman (screenplay), Nicholas Stoller (screenplay), and 1 more credit Ã‚Â»\nStars:\nJack Black, Emily Blunt and Jason Segel \n\n\n\nGreetz to Imagine ,Flawl3ss ,Santi ,Vision ,Kingdom,BDK,DiGiTALiNK,LEGION,Classified,THC,WBZ,Rx ,Feel Free and to all who share\n\n\n\nEncoded by SAFCuk009","torrent":{"xt":"urn:btih:cc19a7271aa15bdda9453cf3259c7e5e9a3e639d","amp;dn":"Gullivers+Travels+2010+XviD+R5+LiNE+DragonTrG","amp;tr":["udp%3A%2F%2Ftracker.openbittorrent.com%3A80","udp%3A%2F%2Fopen.demonii.com%3A1337","udp%3A%2F%2Ftracker.coppersurfer.tk%3A6969","udp%3A%2F%2Fexodus.desync.com%3A6969"],"infoHash":"cc19a7271aa15bdda9453cf3259c7e5e9a3e639d","infoHashBuffer":{"type":"Buffer","data":[204,25,167,39,26,161,91,221,169,69,60,243,37,156,126,94,154,62,99,157]},"announce":[],"urlList":[]}}